<?xml version="1.0" encoding="UTF-8"?>
<svg version="1.1" xmlns="http://www.w3.org/2000/svg" width="438" height="157">
<path d="M0 0 C144.54 0 289.08 0 438 0 C438 51.81 438 103.62 438 157 C293.46 157 148.92 157 0 157 C0 105.19 0 53.38 0 0 Z " fill="#FCFCFC" transform="translate(0,0)"/>
<path d="M0 0 C6.65426325 1.74241392 13.3028807 3.28185318 20.0625 4.5625 C20.0625 5.2225 20.0625 5.8825 20.0625 6.5625 C14.4525 7.2225 8.8425 7.8825 3.0625 8.5625 C3.0625 13.8425 3.0625 19.1225 3.0625 24.5625 C7.6825 24.5625 12.3025 24.5625 17.0625 24.5625 C17.0625 27.5325 17.0625 30.5025 17.0625 33.5625 C11.7825 33.5625 6.5025 33.5625 1.0625 33.5625 C1.0625 36.5325 1.0625 39.5025 1.0625 42.5625 C6.0125 42.5625 10.9625 42.5625 16.0625 42.5625 C16.0625 45.2025 16.0625 47.8425 16.0625 50.5625 C11.1125 50.5625 6.1625 50.5625 1.0625 50.5625 C1.0625 53.5325 1.0625 56.5025 1.0625 59.5625 C6.3425 59.5625 11.6225 59.5625 17.0625 59.5625 C17.0625 62.5325 17.0625 65.5025 17.0625 68.5625 C8.8125 68.5625 0.5625 68.5625 -7.9375 68.5625 C-7.9375 55.0325 -7.9375 41.5025 -7.9375 27.5625 C-10.2475 27.5625 -12.5575 27.5625 -14.9375 27.5625 C-15.17984375 28.23796875 -15.4221875 28.9134375 -15.671875 29.609375 C-17.21175672 33.20243235 -19.15810563 36.48234124 -21.1875 39.8125 C-21.58646484 40.4734668 -21.98542969 41.13443359 -22.39648438 41.81542969 C-25.08522338 46.2425402 -27.87937682 50.57919011 -30.84375 54.828125 C-32.11056853 56.68409792 -32.11056853 56.68409792 -32.9375 59.5625 C-26.6675 59.5625 -20.3975 59.5625 -13.9375 59.5625 C-13.9375 62.5325 -13.9375 65.5025 -13.9375 68.5625 C-26.1475 68.5625 -38.3575 68.5625 -50.9375 68.5625 C-49.47087627 64.89594067 -48.1538958 62.07953315 -46.109375 58.796875 C-45.55636719 57.90613281 -45.00335938 57.01539063 -44.43359375 56.09765625 C-43.85738281 55.17855469 -43.28117187 54.25945312 -42.6875 53.3125 C-42.12675781 52.40886719 -41.56601563 51.50523438 -40.98828125 50.57421875 C-37.40956365 44.83008773 -33.71791493 39.17584338 -29.9375 33.5625 C-35.8775 33.5625 -41.8175 33.5625 -47.9375 33.5625 C-47.9375 31.5825 -47.9375 29.6025 -47.9375 27.5625 C-43.1875 26.4375 -43.1875 26.4375 -40.9375 27.5625 C-40.9375 26.9025 -40.9375 26.2425 -40.9375 25.5625 C-38.9575 25.5625 -36.9775 25.5625 -34.9375 25.5625 C-35.07803872 22.93711716 -35.22468947 20.31232573 -35.375 17.6875 C-35.41431641 16.94113281 -35.45363281 16.19476563 -35.49414062 15.42578125 C-35.65323624 11.36263136 -35.65323624 11.36263136 -36.9375 7.5625 C-30.86934478 6.33350654 -25.13854812 5.28689786 -18.9375 5.5625 C-18.9375 4.9025 -18.9375 4.2425 -18.9375 3.5625 C-19.55270508 3.65337891 -20.16791016 3.74425781 -20.80175781 3.83789062 C-23.59657971 4.24904888 -26.39202331 4.65581859 -29.1875 5.0625 C-30.15558594 5.20558594 -31.12367187 5.34867188 -32.12109375 5.49609375 C-33.05566406 5.63144531 -33.99023438 5.76679688 -34.953125 5.90625 C-35.81196289 6.03193359 -36.67080078 6.15761719 -37.55566406 6.28710938 C-39.9375 6.5625 -39.9375 6.5625 -43.9375 6.5625 C-42.9375 3.5625 -42.9375 3.5625 -40.5625 2.0625 C-26.38626586 -3.80352792 -14.57212854 -3.86561492 0 0 Z " fill="#0A0909" transform="translate(141.9375,17.4375)"/>
<path d="M0 0 C2.31 0 4.62 0 7 0 C7.9873493 5.73619197 8.13082936 11.27671658 8.09765625 17.08984375 C8.0962413 18.03436905 8.09482635 18.97889435 8.09336853 19.95204163 C8.0878036 22.94722763 8.07525767 25.94233687 8.0625 28.9375 C8.05748046 30.97721246 8.05291835 33.01692609 8.04882812 35.05664062 C8.03869967 40.03781326 8.01911753 45.01882144 8 50 C15.26 50 22.52 50 30 50 C30 52.31 30 54.62 30 57 C23.07 57 16.14 57 9 57 C9.05220703 61.35638672 9.05220703 61.35638672 9.10546875 65.80078125 C9.12893696 68.64720682 9.14711208 71.49362117 9.16479492 74.34008789 C9.17978159 76.3020519 9.20017793 78.26398298 9.22631836 80.22583008 C9.49791465 101.14939522 9.49791465 101.14939522 6 110 C7.01578125 109.51789063 8.0315625 109.03578125 9.078125 108.5390625 C17.31173715 104.72309415 24.85165903 101.73032974 34 101 C35.34964844 100.84337891 35.34964844 100.84337891 36.7265625 100.68359375 C44.904671 100.1297449 50.85993514 103.33868833 58 107 C69.39659041 110.79886347 82.39345554 107.90426386 93.36328125 104.09375 C96.81456041 103.05577131 99.4280323 102.77848262 103 103 C100.23958936 105.76041064 96.91174704 106.92587762 93.375 108.4375 C92.68792969 108.73720703 92.00085938 109.03691406 91.29296875 109.34570312 C89.20290086 110.24956926 87.10228324 111.12499031 85 112 C84.35305176 112.2882666 83.70610352 112.5765332 83.03955078 112.87353516 C77.71721693 115.11065164 72.86846103 115.53988515 67.125 115.5 C66.24457031 115.49863037 65.36414063 115.49726074 64.45703125 115.49584961 C58.4983917 115.35515951 53.97184576 114.47999607 48.875 111.19140625 C40.77918457 106.0471902 25.02110689 108.00997245 16.09765625 109.89453125 C13.37217744 110.55785142 10.71154946 111.32654352 8.01953125 112.125 C5 113 5 113 2 113 C-0.34364861 104.96472825 -1.42392023 97.68397908 -1.29296875 89.328125 C-1.28872391 88.27969421 -1.28447906 87.23126343 -1.28010559 86.15106201 C-1.26350905 82.85043026 -1.22589409 79.5504426 -1.1875 76.25 C-1.17242853 73.99219641 -1.15874448 71.73438311 -1.14648438 69.4765625 C-1.11366833 63.98416068 -1.06366386 58.49212637 -1 53 C-1.99 52.67 -2.98 52.34 -4 52 C-4 38.47 -4 24.94 -4 11 C-3.01 10.67 -2.02 10.34 -1 10 C-0.67 6.7 -0.34 3.4 0 0 Z " fill="#0A0805" transform="translate(203,31)"/>
<path d="M0 0 C8.25 0 16.5 0 25 0 C25 3.3 25 6.6 25 10 C20.05 10 15.1 10 10 10 C10 12.31 10 14.62 10 17 C10.99902344 16.98839844 11.99804688 16.97679688 13.02734375 16.96484375 C14.31769531 16.95582031 15.60804687 16.94679688 16.9375 16.9375 C18.22527344 16.92589844 19.51304688 16.91429688 20.83984375 16.90234375 C24 17 24 17 25 18 C25.14115161 20.67058851 25.04247107 23.32432238 25 26 C20.05 26 15.1 26 10 26 C10 28.97 10 31.94 10 35 C14.95 35 19.9 35 25 35 C25 37.97 25 40.94 25 44 C16.75 44 8.5 44 0 44 C0 29.48 0 14.96 0 0 Z " fill="#131313" transform="translate(62,42)"/>
<path d="M0 0 C8.58 0 17.16 0 26 0 C26 2.97 26 5.94 26 9 C20.72 9 15.44 9 10 9 C10 11.97 10 14.94 10 18 C14.95 18 19.9 18 25 18 C25 20.64 25 23.28 25 26 C20.05 26 15.1 26 10 26 C10 29.3 10 32.6 10 36 C14.95 36 19.9 36 25 36 C25 38.64 25 41.28 25 44 C16.75 44 8.5 44 0 44 C0 29.48 0 14.96 0 0 Z " fill="#101010" transform="translate(164,42)"/>
<path d="M0 0 C0.69931641 0.00644531 1.39863281 0.01289062 2.11914062 0.01953125 C2.82361328 0.03628906 3.52808594 0.05304687 4.25390625 0.0703125 C5.3512207 0.08384766 5.3512207 0.08384766 6.47070312 0.09765625 C8.25274923 0.12095097 10.03462384 0.1568106 11.81640625 0.1953125 C11.81640625 2.8353125 11.81640625 5.4753125 11.81640625 8.1953125 C6.86640625 8.1953125 1.91640625 8.1953125 -3.18359375 8.1953125 C-3.18359375 11.1653125 -3.18359375 14.1353125 -3.18359375 17.1953125 C1.76640625 17.1953125 6.71640625 17.1953125 11.81640625 17.1953125 C11.81640625 19.8353125 11.81640625 22.4753125 11.81640625 25.1953125 C6.86640625 25.1953125 1.91640625 25.1953125 -3.18359375 25.1953125 C-2.85359375 28.1653125 -2.52359375 31.1353125 -2.18359375 34.1953125 C4.74640625 34.6903125 4.74640625 34.6903125 11.81640625 35.1953125 C11.81640625 37.5053125 11.81640625 39.8153125 11.81640625 42.1953125 C4.22640625 42.1953125 -3.36359375 42.1953125 -11.18359375 42.1953125 C-11.18359375 28.9953125 -11.18359375 15.7953125 -11.18359375 2.1953125 C-3.30859375 -0.0546875 -3.30859375 -0.0546875 0 0 Z " fill="#020202" transform="translate(146.18359375,42.8046875)"/>
<path d="M0 0 C7.26 0 14.52 0 22 0 C22 0.33 22 0.66 22 1 C15.07 1 8.14 1 1 1 C1.05220703 5.35638672 1.05220703 5.35638672 1.10546875 9.80078125 C1.12893696 12.64720682 1.14711208 15.49362117 1.16479492 18.34008789 C1.17978159 20.3020519 1.20017793 22.26398298 1.22631836 24.22583008 C1.49791465 45.14939522 1.49791465 45.14939522 -2 54 C-0.98421875 53.51789063 0.0315625 53.03578125 1.078125 52.5390625 C9.31173715 48.72309415 16.85165903 45.73032974 26 45 C27.34964844 44.84337891 27.34964844 44.84337891 28.7265625 44.68359375 C36.904671 44.1297449 42.85993514 47.33868833 50 51 C61.39659041 54.79886347 74.39345554 51.90426386 85.36328125 48.09375 C88.81456041 47.05577131 91.4280323 46.77848262 95 47 C92.23958936 49.76041064 88.91174704 50.92587762 85.375 52.4375 C84.68792969 52.73720703 84.00085938 53.03691406 83.29296875 53.34570312 C81.20290086 54.24956926 79.10228324 55.12499031 77 56 C76.35305176 56.2882666 75.70610352 56.5765332 75.03955078 56.87353516 C69.71721693 59.11065164 64.86846103 59.53988515 59.125 59.5 C58.24457031 59.49863037 57.36414063 59.49726074 56.45703125 59.49584961 C50.4983917 59.35515951 45.97184576 58.47999607 40.875 55.19140625 C32.77918457 50.0471902 17.02110689 52.00997245 8.09765625 53.89453125 C5.37217744 54.55785142 2.71154946 55.32654352 0.01953125 56.125 C-3 57 -3 57 -6 57 C-6.50435694 55.0636296 -7.00333874 53.12585854 -7.5 51.1875 C-7.7784375 50.10855469 -8.056875 49.02960938 -8.34375 47.91796875 C-9 45 -9 45 -9 42 C-6.03 42 -3.06 42 0 42 C0 28.14 0 14.28 0 0 Z " fill="#131313" transform="translate(211,87)"/>
<path d="M0 0 C0.85078125 0.00322266 1.7015625 0.00644531 2.578125 0.00976562 C3.46757812 0.01814453 4.35703125 0.02652344 5.2734375 0.03515625 C6.170625 0.03966797 7.0678125 0.04417969 7.9921875 0.04882812 C10.21100398 0.06063034 12.42968768 0.0770947 14.6484375 0.09765625 C14.73552502 4.34752715 14.78885931 8.59716864 14.8359375 12.84765625 C14.86107422 14.05421875 14.88621094 15.26078125 14.91210938 16.50390625 C14.92177734 17.6640625 14.93144531 18.82421875 14.94140625 20.01953125 C14.9571167 21.0878418 14.97282715 22.15615234 14.98901367 23.25683594 C14.60612613 26.45058461 13.89739578 27.82990254 11.6484375 30.09765625 C10.9884375 30.09765625 10.3284375 30.09765625 9.6484375 30.09765625 C9.6484375 30.75765625 9.6484375 31.41765625 9.6484375 32.09765625 C7.2305663 32.20591914 4.81756194 32.28505414 2.3984375 32.34765625 C1.37556641 32.39792969 1.37556641 32.39792969 0.33203125 32.44921875 C-3.27338063 32.51922675 -4.99225062 32.38917344 -7.8359375 30.08203125 C-8.33609375 29.4271875 -8.83625 28.77234375 -9.3515625 28.09765625 C-9.0215625 27.10765625 -8.6915625 26.11765625 -8.3515625 25.09765625 C-6.69541593 24.71546858 -5.02699226 24.38370523 -3.3515625 24.09765625 C-3.0215625 24.42765625 -2.6915625 24.75765625 -2.3515625 25.09765625 C-0.01858817 25.13858562 2.31548975 25.14007348 4.6484375 25.09765625 C4.9784375 23.77765625 5.3084375 22.45765625 5.6484375 21.09765625 C4.91238281 21.16726562 4.17632812 21.236875 3.41796875 21.30859375 C-4.20522003 21.73154478 -4.20522003 21.73154478 -7.1953125 20.078125 C-9.90376983 17.22007264 -10.69845767 14.32726471 -10.9140625 10.53515625 C-10.67921936 6.31509626 -9.47921718 4.04133124 -6.3515625 1.09765625 C-4.00303722 -0.07660639 -2.61382185 -0.01742548 0 0 Z " fill="#0F0F0F" transform="translate(387.3515625,61.90234375)"/>
<path d="M0 0 C2.84261831 0.7748667 2.84261831 0.7748667 9.0625 0.5 C9.0625 7.43 9.0625 14.36 9.0625 21.5 C6.7525 21.5 4.4425 21.5 2.0625 21.5 C2.0625 20.84 2.0625 20.18 2.0625 19.5 C1.010625 20.2425 1.010625 20.2425 -0.0625 21 C-3.47266525 22.77921665 -5.14303658 23.11950423 -8.9375 22.5 C-11.88192403 20.77443057 -14.33903394 18.78242728 -15.8125 15.625 C-15.85375 14.92375 -15.895 14.2225 -15.9375 13.5 C-16.06125 12.38625 -16.185 11.2725 -16.3125 10.125 C-15.80957522 5.26339375 -14.39715098 3.87919398 -10.9375 0.5 C-7.21407849 -0.7411405 -3.83504525 -0.9896891 0 0 Z " fill="#0F0F0F" transform="translate(274.9375,61.5)"/>
<path d="M0 0 C7.40104167 0.765625 7.40104167 0.765625 10.875 2.125 C17.66626611 4.02655451 24.42503992 1.97248802 31 0 C32.32 0 33.64 0 35 0 C35.495 6.435 35.495 6.435 36 13 C28.12969451 16.29121866 21.45794788 17.65481589 13 16 C11.845 16.04125 10.69 16.0825 9.5 16.125 C5.5841873 15.98514955 3.34918465 14.96049833 0 13 C0 8.71 0 4.42 0 0 Z " fill="#010101" transform="translate(108,28)"/>
<path d="M0 0 C2.64 0 5.28 0 8 0 C8 0.66 8 1.32 8 2 C8.99 1.34 9.98 0.68 11 0 C14.89120189 -0.43235577 17.22838265 -0.41197463 20.70703125 1.4453125 C24.07888425 5.20202776 23.55949258 8.38614609 23.3125 13.25 C23.28994141 14.09046875 23.26738281 14.9309375 23.24414062 15.796875 C23.18537714 17.86534964 23.09569885 19.93290488 23 22 C20.69 22 18.38 22 16 22 C15.67 17.05 15.34 12.1 15 7 C12.03 6.505 12.03 6.505 9 6 C8.67 11.28 8.34 16.56 8 22 C5.36 22 2.72 22 0 22 C0 14.74 0 7.48 0 0 Z " fill="#0F0F0F" transform="translate(350,61)"/>
<path d="M0 0 C2.90278351 1.35621852 3.8546734 2.41460641 6 5 C6 7.31 6 9.62 6 12 C1.05 12 -3.9 12 -9 12 C-8.34 13.32 -7.68 14.64 -7 16 C-2.84823736 16.12581298 -2.84823736 16.12581298 1.1875 15.3125 C1.785625 15.209375 2.38375 15.10625 3 15 C4.75 16.4375 4.75 16.4375 6 18 C3.69066585 20.54823079 1.8096615 21.86283096 -1.60546875 22.44140625 C-6.52440423 22.64719167 -9.11792231 22.67037904 -13.125 19.625 C-15.92519701 15.70472419 -16.53426343 13.10656245 -16.46484375 8.33203125 C-15.74977578 4.74467345 -14.03679505 3.14356808 -11.1328125 1.0390625 C-7.35927174 -0.79932915 -4.06054825 -0.97100067 0 0 Z " fill="#101010" transform="translate(250,61)"/>
<path d="M0 0 C7.08153947 -0.48010437 7.08153947 -0.48010437 10.75 1.4375 C14.06140142 5.20881828 13.55832158 8.40920583 13.3125 13.25 C13.28994141 14.09046875 13.26738281 14.9309375 13.24414062 15.796875 C13.18537714 17.86534964 13.09569885 19.93290488 13 22 C10.69 22 8.38 22 6 22 C5.93941406 21.00097656 5.87882812 20.00195312 5.81640625 18.97265625 C5.69072266 17.03712891 5.69072266 17.03712891 5.5625 15.0625 C5.48128906 13.77472656 5.40007812 12.48695312 5.31640625 11.16015625 C5.35080812 8.13976043 5.35080812 8.13976043 4 7 C1.5 6.83333333 1.5 6.83333333 -1 7 C-2.94090826 8.94090826 -2.39919435 12.47293902 -2.5625 15.0625 C-2.64628906 16.35285156 -2.73007812 17.64320312 -2.81640625 18.97265625 C-2.87699219 19.97167969 -2.93757813 20.97070312 -3 22 C-5.31 22 -7.62 22 -10 22 C-10 15.07 -10 8.14 -10 1 C-3 1 -3 1 0 2 C0 1.34 0 0.68 0 0 Z " fill="#0D0D0D" transform="translate(320,61)"/>
<path d="M0 0 C1.8871875 0.0309375 1.8871875 0.0309375 3.8125 0.0625 C2.8225 1.5475 2.8225 1.5475 1.8125 3.0625 C11.13929238 5.78844657 18.57971764 4.77802422 27.8125 2.0625 C29.4625 2.0625 31.1125 2.0625 32.8125 2.0625 C32.8125 7.3425 32.8125 12.6225 32.8125 18.0625 C37.4325 18.0625 42.0525 18.0625 46.8125 18.0625 C46.8125 21.0325 46.8125 24.0025 46.8125 27.0625 C46.4825 27.0625 46.1525 27.0625 45.8125 27.0625 C45.8125 24.4225 45.8125 21.7825 45.8125 19.0625 C43.29141897 19.20474587 40.77069597 19.35120121 38.25 19.5 C37.54552734 19.53931641 36.84105469 19.57863281 36.11523438 19.61914062 C35.41591797 19.66103516 34.71660156 19.70292969 33.99609375 19.74609375 C33.36243896 19.78275146 32.72878418 19.81940918 32.07592773 19.85717773 C28.97482265 20.13848821 25.89504255 20.62213678 22.8125 21.0625 C22.8125 34.2625 22.8125 47.4625 22.8125 61.0625 C30.4025 61.0625 37.9925 61.0625 45.8125 61.0625 C45.8125 58.7525 45.8125 56.4425 45.8125 54.0625 C41.1925 54.0625 36.5725 54.0625 31.8125 54.0625 C31.8125 53.7325 31.8125 53.4025 31.8125 53.0625 C36.7625 53.0625 41.7125 53.0625 46.8125 53.0625 C46.8125 56.0325 46.8125 59.0025 46.8125 62.0625 C38.5625 62.0625 30.3125 62.0625 21.8125 62.0625 C21.8125 48.5325 21.8125 35.0025 21.8125 21.0625 C21.1525 20.7325 20.4925 20.4025 19.8125 20.0625 C23.7725 19.0725 27.7325 18.0825 31.8125 17.0625 C31.3175 15.0825 31.3175 15.0825 30.8125 13.0625 C30.74701508 11.48038427 30.72671619 9.89579919 30.75 8.3125 C30.75902344 7.51328125 30.76804688 6.7140625 30.77734375 5.890625 C30.78894531 5.28734375 30.80054688 4.6840625 30.8125 4.0625 C29.79929688 4.35125 28.78609375 4.64 27.7421875 4.9375 C26.39073687 5.31290295 25.03916799 5.68788041 23.6875 6.0625 C22.68976563 6.34867188 22.68976563 6.34867188 21.671875 6.640625 C14.48583659 8.61326299 9.53078036 8.20386766 2.4375 6.0625 C1.19226563 5.69125 -0.05296875 5.32 -1.3359375 4.9375 C-2.74746094 4.504375 -2.74746094 4.504375 -4.1875 4.0625 C-4.1875 8.3525 -4.1875 12.6425 -4.1875 17.0625 C0.38677092 18.58725697 4.10534832 19.4976418 8.8125 20.0625 C9.1425 19.4025 9.4725 18.7425 9.8125 18.0625 C9.8125 18.7225 9.8125 19.3825 9.8125 20.0625 C11.4625 20.0625 13.1125 20.0625 14.8125 20.0625 C14.4825 21.7125 14.1525 23.3625 13.8125 25.0625 C13.1525 24.4025 12.4925 23.7425 11.8125 23.0625 C9.5177807 22.46820467 7.20067816 21.95841541 4.875 21.5 C-1.97873711 20.13208763 -1.97873711 20.13208763 -5.1875 19.0625 C-5.24808594 17.93070313 -5.30867188 16.79890625 -5.37109375 15.6328125 C-5.45549917 14.15102855 -5.54014717 12.6692584 -5.625 11.1875 C-5.68397461 10.06794922 -5.68397461 10.06794922 -5.74414062 8.92578125 C-5.90323624 4.86263136 -5.90323624 4.86263136 -7.1875 1.0625 C-4.43671116 0.14557039 -2.82801087 -0.04636083 0 0 Z " fill="#2C2C2C" transform="translate(112.1875,23.9375)"/>
<path d="M0 0 C1.32 0 2.64 0 4 0 C4 1.65 4 3.3 4 5 C8.95 5 13.9 5 19 5 C19 6.32 19 7.64 19 9 C17.68 9.33 16.36 9.66 15 10 C14.67 14.29 14.34 18.58 14 23 C3.60148285 23.36700649 3.60148285 23.36700649 1.15625 21.875 C-0.52442783 19.14957649 -0.28970839 16.98096012 -0.1875 13.8125 C-0.16042969 12.72582031 -0.13335937 11.63914062 -0.10546875 10.51953125 C-0.07066406 9.68808594 -0.03585937 8.85664062 0 8 C-0.66 8 -1.32 8 -2 8 C-2 7.01 -2 6.02 -2 5 C-1.34 5 -0.68 5 0 5 C0 3.35 0 1.7 0 0 Z " fill="#DBDBDB" transform="translate(276,96)"/>
<path d="M0 0 C-0.804375 0.28875 -1.60875 0.5775 -2.4375 0.875 C-5.1326468 1.73262568 -5.1326468 1.73262568 -6 4 C-5.42032471 3.90912109 -4.84064941 3.81824219 -4.2434082 3.72460938 C-1.60036412 3.31250055 1.04354162 2.90619983 3.6875 2.5 C5.05551758 2.28537109 5.05551758 2.28537109 6.45117188 2.06640625 C7.78051758 1.86337891 7.78051758 1.86337891 9.13671875 1.65625 C9.94842529 1.53056641 10.76013184 1.40488281 11.59643555 1.27539062 C14.08533405 0.99022277 16.49706689 0.95325261 19 1 C19 1.66 19 2.32 19 3 C17.94039062 3.13277344 16.88078125 3.26554687 15.7890625 3.40234375 C14.40101721 3.58053875 13.01299769 3.7589346 11.625 3.9375 C10.92632812 4.02451172 10.22765625 4.11152344 9.5078125 4.20117188 C5.63216425 4.66318128 5.63216425 4.66318128 2 6 C2.33 6.33 2.66 6.66 3 7 C3.07319621 9.69654854 3.09242537 12.36691458 3.0625 15.0625 C3.05798828 15.82111328 3.05347656 16.57972656 3.04882812 17.36132812 C3.0370068 19.24091871 3.01907078 21.12046899 3 23 C1.02 23 -0.96 23 -3 23 C-3 23.66 -3 24.32 -3 25 C-4.32 25.33 -5.64 25.66 -7 26 C-7 25.34 -7 24.68 -7 24 C-7.66 24.33 -8.32 24.66 -9 25 C-9.65772428 28.02934491 -9.65772428 28.02934491 -10 31 C-10.33 31 -10.66 31 -11 31 C-11 28.03 -11 25.06 -11 22 C-10.01 22 -9.02 22 -8 22 C-7.93941406 21.35933594 -7.87882812 20.71867187 -7.81640625 20.05859375 C-7.32790588 15.01576687 -6.76220714 10.0087898 -6 5 C-7.134375 4.87625 -8.26875 4.7525 -9.4375 4.625 C-10.613125 4.41875 -11.78875 4.2125 -13 4 C-13.33 3.34 -13.66 2.68 -14 2 C-12.42085985 1.46658816 -10.83645613 0.94874237 -9.25 0.4375 C-8.36828125 0.14746094 -7.4865625 -0.14257812 -6.578125 -0.44140625 C-3.92165684 -1.01697435 -2.52968894 -0.89248371 0 0 Z " fill="#918865" transform="translate(104,20)"/>
<path d="M0 0 C2.475 0.99 2.475 0.99 5 2 C5 14.87 5 27.74 5 41 C3.35 41.66 1.7 42.32 0 43 C-1.92257175 41.07742825 -1.12908424 38.21914892 -1.13894653 35.66125488 C-1.1369223 34.77272827 -1.13489807 33.88420166 -1.1328125 32.96875 C-1.13376923 32.06249878 -1.13472595 31.15624756 -1.13571167 30.22253418 C-1.13639353 28.30248953 -1.13453882 26.38244259 -1.13037109 24.46240234 C-1.12502292 21.51264296 -1.13031588 18.56303586 -1.13671875 15.61328125 C-1.13605797 13.75260383 -1.13477681 11.8919265 -1.1328125 10.03125 C-1.13483673 9.14272339 -1.13686096 8.25419678 -1.13894653 7.33874512 C-1.11494988 1.11494988 -1.11494988 1.11494988 0 0 Z " fill="#93782F" transform="translate(200,41)"/>
<path d="M0 0 C2.31 0 4.62 0 7 0 C7 0.99 7 1.98 7 3 C7.66 3 8.32 3 9 3 C9 2.34 9 1.68 9 1 C11.70879335 -0.35439668 14.00933268 -0.06501451 17 0 C17.625 1.8125 17.625 1.8125 18 4 C17.01 5.485 17.01 5.485 16 7 C14.00043389 7.04165763 11.99956611 7.04165763 10 7 C7.22957891 9.77042109 7.60203894 11.76533805 7.375 15.625 C7.30023438 16.81351563 7.22546875 18.00203125 7.1484375 19.2265625 C7.09945313 20.14179687 7.05046875 21.05703125 7 22 C4.69 22 2.38 22 0 22 C0 14.74 0 7.48 0 0 Z " fill="#121212" transform="translate(289,61)"/>
<path d="M0 0 C1.9375 1.0625 1.9375 1.0625 3 3 C3.1875 6.6875 3.1875 6.6875 3 10 C-0.3 10 -3.6 10 -7 10 C-6.67 10.66 -6.34 11.32 -6 12 C-3.36 12 -0.72 12 2 12 C2 13.32 2 14.64 2 16 C0.43081508 17.56918492 -1.14085159 17.28258943 -3.3125 17.375 C-6.85320391 17.32425743 -7.70319607 17.23889097 -10.5625 14.9375 C-12.37781677 11.22793965 -12.65622237 9.08316143 -12 5 C-8.57775616 0.12589513 -5.85939785 -0.86805894 0 0 Z " fill="#1B1B1B" transform="translate(309,101)"/>
<path d="M0 0 C1.94140625 0.3828125 1.94140625 0.3828125 4.44140625 2.0078125 C6.32097461 4.98379573 6.25565132 6.92611668 5.94140625 10.3828125 C2.64140625 10.3828125 -0.65859375 10.3828125 -4.05859375 10.3828125 C-4.05859375 11.3728125 -4.05859375 12.3628125 -4.05859375 13.3828125 C-1.41859375 13.0528125 1.22140625 12.7228125 3.94140625 12.3828125 C3.94140625 13.7028125 3.94140625 15.0228125 3.94140625 16.3828125 C2.94140625 17.3828125 2.94140625 17.3828125 -0.87109375 17.6953125 C-3.79979674 17.63221656 -4.95312004 17.44345988 -7.55859375 15.9453125 C-9.79707922 12.12123315 -9.68504936 8.7045632 -9.05859375 4.3828125 C-7.31771231 -0.0781962 -4.61348761 -0.25488882 0 0 Z " fill="#1D1D1D" transform="translate(248.05859375,100.6171875)"/>
<path d="M0 0 C7.26 0 14.52 0 22 0 C22 0.33 22 0.66 22 1 C15.07 1 8.14 1 1 1 C1.02320313 3.96226563 1.04640625 6.92453125 1.0703125 9.9765625 C1.08592463 12.85595268 1.09806049 15.73533808 1.10986328 18.61474609 C1.11990052 20.61086143 1.1335332 22.60696214 1.15087891 24.60302734 C1.17522735 27.47757587 1.18650605 30.35192941 1.1953125 33.2265625 C1.20563507 34.11429352 1.21595764 35.00202454 1.22659302 35.91665649 C1.22745879 40.73331746 0.72444297 44.44236236 -1 49 C-1.07522969 51.33212027 -1.09325876 53.6685311 -1 56 C-3.475 56.495 -3.475 56.495 -6 57 C-6.50435694 55.0636296 -7.00333874 53.12585854 -7.5 51.1875 C-7.7784375 50.10855469 -8.056875 49.02960938 -8.34375 47.91796875 C-9 45 -9 45 -9 42 C-6.03 42 -3.06 42 0 42 C0 28.14 0 14.28 0 0 Z " fill="#8F8977" transform="translate(211,87)"/>
<path d="M0 0 C9.1796875 -0.1953125 9.1796875 -0.1953125 12 0 C14 2 14 2 14.1953125 5.4765625 C14.18201493 6.85950968 14.15816232 8.24238654 14.125 9.625 C14.11597656 10.33140625 14.10695313 11.0378125 14.09765625 11.765625 C14.07407603 13.51056098 14.03820461 15.25532295 14 17 C12.68 17 11.36 17 10 17 C10 12.71 10 8.42 10 4 C8.02 4 6.04 4 4 4 C4 8.29 4 12.58 4 17 C2.68 17 1.36 17 0 17 C0 11.39 0 5.78 0 0 Z " fill="#161616" transform="translate(257,101)"/>
<path d="M0 0 C2.31 0 4.62 0 7 0 C7 6.93 7 13.86 7 21 C4.69 21 2.38 21 0 21 C0 14.07 0 7.14 0 0 Z " fill="#060606" transform="translate(338,62)"/>
<path d="M0 0 C1.9375 0.3359375 1.9375 0.3359375 4.9375 2.3359375 C4.9375 3.6559375 4.9375 4.9759375 4.9375 6.3359375 C3.6175 6.3359375 2.2975 6.3359375 0.9375 6.3359375 C0.6075 5.6759375 0.2775 5.0159375 -0.0625 4.3359375 C-1.3825 4.6659375 -2.7025 4.9959375 -4.0625 5.3359375 C-4.0625 7.9759375 -4.0625 10.6159375 -4.0625 13.3359375 C-2.4125 13.3359375 -0.7625 13.3359375 0.9375 13.3359375 C0.9375 12.6759375 0.9375 12.0159375 0.9375 11.3359375 C2.2575 11.3359375 3.5775 11.3359375 4.9375 11.3359375 C4.43146008 13.50468002 3.93766187 15.33561377 2.9375 17.3359375 C-5.18315137 17.94881685 -5.18315137 17.94881685 -8.125 15.8984375 C-9.84848805 11.18757017 -9.88923636 6.45444942 -8.0625 1.7734375 C-5.35357597 -0.17360165 -3.26913855 -0.0619155 0 0 Z " fill="#171717" transform="translate(231.0625,100.6640625)"/>
<path d="M0 0 C0 0.33 0 0.66 0 1 C-1.175625 0.979375 -2.35125 0.95875 -3.5625 0.9375 C-7.47413467 0.93052739 -11.14497944 1.35749657 -15 2 C-15 2.99 -15 3.98 -15 5 C-11.7 5 -8.4 5 -5 5 C-5 5.66 -5 6.32 -5 7 C-6.26714844 6.979375 -7.53429687 6.95875 -8.83984375 6.9375 C-14.12585617 6.9375 -19.31171945 7.42984921 -24.5625 8 C-25.47580078 8.09539063 -26.38910156 8.19078125 -27.33007812 8.2890625 C-29.55385532 8.52191875 -31.77709776 8.75895855 -34 9 C-33 6 -33 6 -30.625 4.5 C-20.53809784 0.32610945 -10.81940588 -1.59469701 0 0 Z " fill="#302B26" transform="translate(132,15)"/>
<path d="M0 0 C1.32 0 2.64 0 4 0 C4 1.65 4 3.3 4 5 C4.99 5 5.98 5 7 5 C7 5.99 7 6.98 7 8 C6.01 8 5.02 8 4 8 C4 11.3 4 14.6 4 18 C4.99 18 5.98 18 7 18 C7 19.32 7 20.64 7 22 C4.625 22.125 4.625 22.125 2 22 C0 20 0 20 -0.1953125 17.1796875 C-0.17210937 16.08914062 -0.14890625 14.99859375 -0.125 13.875 C-0.10695313 12.77929688 -0.08890625 11.68359375 -0.0703125 10.5546875 C-0.04710937 9.71164063 -0.02390625 8.86859375 0 8 C-0.66 8 -1.32 8 -2 8 C-2 7.01 -2 6.02 -2 5 C-1.34 5 -0.68 5 0 5 C0 3.35 0 1.7 0 0 Z " fill="#0C0C0C" transform="translate(276,96)"/>
<path d="M0 0 C0.99 0 1.98 0 3 0 C3 12.54 3 25.08 3 38 C2.01 37.67 1.02 37.34 0 37 C0 24.79 0 12.58 0 0 Z " fill="#CEA531" transform="translate(201,43)"/>
<path d="M0 0 C1.32 0 2.64 0 4 0 C5.4606285 2.64738916 6 3.89448334 6 7 C5.34 7 4.68 7 4 7 C4 11.29 4 15.58 4 20 C2.35 20 0.7 20 -1 20 C-1.02888514 16.85418577 -1.04675923 13.70840531 -1.0625 10.5625 C-1.07087891 9.66466797 -1.07925781 8.76683594 -1.08789062 7.84179688 C-1.09111328 6.98779297 -1.09433594 6.13378906 -1.09765625 5.25390625 C-1.10551147 4.06776733 -1.10551147 4.06776733 -1.11352539 2.85766602 C-1 1 -1 1 0 0 Z " fill="#020202" transform="translate(353,62)"/>
<path d="M0 0 C2.97 0.495 2.97 0.495 6 1 C6 5.95 6 10.9 6 16 C3.69 16 1.38 16 -1 16 C-1.02712153 14.083412 -1.04645097 12.1667127 -1.0625 10.25 C-1.07410156 9.18265625 -1.08570312 8.1153125 -1.09765625 7.015625 C-1.01510087 4.46631499 -0.74617558 2.42066409 0 0 Z " fill="#FAF9F4" transform="translate(100,26)"/>
<path d="M0 0 C6.6 0 13.2 0 20 0 C20 1.65 20 3.3 20 5 C12.74 5 5.48 5 -2 5 C-1.34 3.35 -0.68 1.7 0 0 Z " fill="#010101" transform="translate(212,82)"/>
<path d="M0 0 C2.125 0.375 2.125 0.375 4 1 C4 1.66 4 2.32 4 3 C5.32 3 6.64 3 8 3 C8.33 2.34 8.66 1.68 9 1 C9.66 1.33 10.32 1.66 11 2 C11 4.64 11 7.28 11 10 C10.01 10.33 9.02 10.66 8 11 C8 10.01 8 9.02 8 8 C6.68 8 5.36 8 4 8 C4 8.66 4 9.32 4 10 C2.35 10 0.7 10 -1 10 C-2.38125018 7.23749964 -2.19079306 5.05268901 -2 2 C-1.34 1.34 -0.68 0.68 0 0 Z " fill="#F3F3F3" transform="translate(228,104)"/>
<path d="M0 0 C2.31 0 4.62 0 7 0 C7.97058832 5.66568337 8.13123058 11.12994803 8.09765625 16.87109375 C8.0962413 17.793423 8.09482635 18.71575226 8.09336853 19.66603088 C8.08780506 22.58988798 8.07525942 25.51366635 8.0625 28.4375 C8.05748028 30.42903535 8.0529182 32.4205719 8.04882812 34.41210938 C8.03784762 39.27476956 8.02060839 44.13737147 8 49 C7.67 49 7.34 49 7 49 C7 35.47 7 21.94 7 8 C4.69 8 2.38 8 0 8 C0 5.36 0 2.72 0 0 Z " fill="#2E2919" transform="translate(203,31)"/>
<path d="M0 0 C2.97 0 5.94 0 9 0 C9 1.32 9 2.64 9 4 C7.68 4.33 6.36 4.66 5 5 C4.67 8.96 4.34 12.92 4 17 C2.68 17 1.36 17 0 17 C0 11.39 0 5.78 0 0 Z " fill="#0E0E0E" transform="translate(286,101)"/>
<path d="M0 0 C2.625 0.25 2.625 0.25 4.4375 1.4375 C6.02699375 3.8635694 5.98987512 5.40397406 5.625 8.25 C3.625 10.25 3.625 10.25 0.625 10.5 C-2.375 10.25 -2.375 10.25 -4.375 8.25 C-3.68534483 0.38793103 -3.68534483 0.38793103 0 0 Z " fill="#E7E7E7" transform="translate(271.375,66.75)"/>
<path d="M0 0 C-3.465 1.485 -3.465 1.485 -7 3 C-0.73 3.33 5.54 3.66 12 4 C12 4.33 12 4.66 12 5 C10.02580078 5.05607422 10.02580078 5.05607422 8.01171875 5.11328125 C-4.67839953 5.52003152 -4.67839953 5.52003152 -17.00390625 8.37890625 C-19 9 -19 9 -22 9 C-21 6 -21 6 -19.3894043 5.00097656 C-17.15963808 4.07206107 -14.93081795 3.14585253 -12.6875 2.25 C-11.91470703 1.92128906 -11.14191406 1.59257812 -10.34570312 1.25390625 C-9.59611328 0.94839844 -8.84652344 0.64289063 -8.07421875 0.328125 C-7.38932373 0.0487207 -6.70442871 -0.23068359 -5.9987793 -0.51855469 C-3.65672322 -1.08268497 -2.2603602 -0.75503429 0 0 Z " fill="#4B4B4C" transform="translate(232,134)"/>
<path d="M0 0 C0.33 1.32 0.66 2.64 1 4 C2.98 4 4.96 4 7 4 C7 4.33 7 4.66 7 5 C5.02 5 3.04 5 1 5 C1.33 5.99 1.66 6.98 2 8 C4.64 8 7.28 8 10 8 C10 9.32 10 10.64 10 12 C8.12735324 13.87264676 5.50240053 13.23607378 3.0078125 13.328125 C1 13 1 13 -0.74609375 11.77734375 C-2.36851794 9.47764591 -2.30861065 8.09804503 -2.1875 5.3125 C-2.16042969 4.50425781 -2.13335937 3.69601563 -2.10546875 2.86328125 C-2.07066406 2.24839844 -2.03585938 1.63351563 -2 1 C-1.34 0.67 -0.68 0.34 0 0 Z " fill="#070707" transform="translate(242,105)"/>
<path d="M0 0 C-0.804375 0.28875 -1.60875 0.5775 -2.4375 0.875 C-5.1326468 1.73262568 -5.1326468 1.73262568 -6 4 C-5.42032471 3.90912109 -4.84064941 3.81824219 -4.2434082 3.72460938 C-1.60036412 3.31250055 1.04354162 2.90619983 3.6875 2.5 C5.05551758 2.28537109 5.05551758 2.28537109 6.45117188 2.06640625 C7.78051758 1.86337891 7.78051758 1.86337891 9.13671875 1.65625 C9.94842529 1.53056641 10.76013184 1.40488281 11.59643555 1.27539062 C14.08533405 0.99022277 16.49706689 0.95325261 19 1 C19 1.66 19 2.32 19 3 C17.96359375 3.12117188 16.9271875 3.24234375 15.859375 3.3671875 C14.48953562 3.53607181 13.11974651 3.70536411 11.75 3.875 C11.06808594 3.95363281 10.38617188 4.03226563 9.68359375 4.11328125 C5.65135569 4.61041214 5.65135569 4.61041214 1.93359375 6.1484375 C-1.13384414 7.49934954 -3.5023082 6.53470571 -6.6875 5.75 C-7.84636719 5.47671875 -9.00523438 5.2034375 -10.19921875 4.921875 C-11.12347656 4.61765625 -12.04773438 4.3134375 -13 4 C-13.33 3.34 -13.66 2.68 -14 2 C-12.42085985 1.46658816 -10.83645613 0.94874237 -9.25 0.4375 C-8.36828125 0.14746094 -7.4865625 -0.14257812 -6.578125 -0.44140625 C-3.92165684 -1.01697435 -2.52968894 -0.89248371 0 0 Z " fill="#796E4A" transform="translate(104,20)"/>
<path d="M0 0 C2.64 0 5.28 0 8 0 C8.33 0.99 8.66 1.98 9 3 C8.34 3 7.68 3 7 3 C7 2.34 7 1.68 7 1 C5.68 1.33 4.36 1.66 3 2 C2.67 8.27 2.34 14.54 2 21 C3.65 21 5.3 21 7 21 C7 16.71 7 12.42 7 8 C7.33 8 7.66 8 8 8 C8 12.62 8 17.24 8 22 C5.36 22 2.72 22 0 22 C0 14.74 0 7.48 0 0 Z " fill="#484848" transform="translate(350,61)"/>
<path d="M0 0 C2.33294775 -0.04241723 4.66702567 -0.04092937 7 0 C8 1 8 1 8.1875 3.9375 C8 7 8 7 6 9 C2.875 9.125 2.875 9.125 0 9 C-1.125 2.25 -1.125 2.25 0 0 Z " fill="#EEEEEE" transform="translate(386,68)"/>
<path d="M0 0 C0.99 0 1.98 0 3 0 C3 0.66 3 1.32 3 2 C3.66 2 4.32 2 5 2 C4.67 6.95 4.34 11.9 4 17 C2.68 17 1.36 17 0 17 C0 11.39 0 5.78 0 0 Z " fill="#0A0A0A" transform="translate(257,101)"/>
<path d="M0 0 C0.33 0 0.66 0 1 0 C1 5.61 1 11.22 1 17 C0.34 16.34 -0.32 15.68 -1 15 C-1.99 15 -2.98 15 -4 15 C-4 14.34 -4 13.68 -4 13 C-6.64 13 -9.28 13 -12 13 C-12 12.01 -12 11.02 -12 10 C-8.7 10 -5.4 10 -2 10 C-2 8.35 -2 6.7 -2 5 C-1.67 5 -1.34 5 -1 5 C-0.67 3.35 -0.34 1.7 0 0 Z " fill="#BEBEBE" transform="translate(256,101)"/>
<path d="M0 0 C0.33 0 0.66 0 1 0 C1 1.98 1 3.96 1 6 C0.01 6 -0.98 6 -2 6 C-1.67 6.99 -1.34 7.98 -1 9 C-1.804375 8.979375 -2.60875 8.95875 -3.4375 8.9375 C-5.93354885 8.70366379 -5.93354885 8.70366379 -7 10 C-9.9375 10.1875 -9.9375 10.1875 -13 10 C-13.66 9.34 -14.32 8.68 -15 8 C-15 7.01 -15 6.02 -15 5 C-10.05 5 -5.1 5 0 5 C0 3.35 0 1.7 0 0 Z " fill="#BDBDBD" transform="translate(256,68)"/>
<path d="M0 0 C2.93453261 0.36681658 3.86437246 0.86437246 6 3 C5.44444444 7.55555556 5.44444444 7.55555556 4 9 C1.5625 9.1875 1.5625 9.1875 -1 9 C-1.66 8.34 -2.32 7.68 -3 7 C-2.67028521 3.70285207 -2.3773161 2.3773161 0 0 Z " fill="#262626" transform="translate(340,48)"/>
<path d="M0 0 C-1.08203125 2.44921875 -1.08203125 2.44921875 -3 5 C-6.13671875 5.70703125 -6.13671875 5.70703125 -9.6875 5.8125 C-10.86699219 5.86019531 -12.04648438 5.90789063 -13.26171875 5.95703125 C-14.16535156 5.97121094 -15.06898437 5.98539063 -16 6 C-15 3 -15 3 -12.5 1.3125 C-8.17404258 -0.30973403 -4.55938053 -0.27356283 0 0 Z " fill="#19150E" transform="translate(114,18)"/>
<path d="M0 0 C0.33 1.32 0.66 2.64 1 4 C-1 6 -1 6 -4.375 6.25 C-7.63523324 6.02515633 -9.30632641 5.7239511 -12 4 C-11.67 3.01 -11.34 2.02 -11 1 C-5.555 0.505 -5.555 0.505 0 0 Z " fill="#DADADA" transform="translate(393,82)"/>
<path d="M0 0 C0.66 0.66 1.32 1.32 2 2 C4.68839385 2.26991906 7.29141936 2.08737357 10 2 C10 3.32 10 4.64 10 6 C8.41105928 7.58894072 6.75198576 7.16998411 4.5625 7.1875 C3.35787109 7.20876953 3.35787109 7.20876953 2.12890625 7.23046875 C0 7 0 7 -2 5 C-2 4.01 -2 3.02 -2 2 C-1.34 2 -0.68 2 0 2 C0 1.34 0 0.68 0 0 Z " fill="#161616" transform="translate(301,111)"/>
<path d="M0 0 C-2.46140365 2.46140365 -4.78456293 3.30326986 -8 4.625 C-9.0725 5.07101563 -10.145 5.51703125 -11.25 5.9765625 C-14 7 -14 7 -16 7 C-16 6.34 -16 5.68 -16 5 C-18.31 5.33 -20.62 5.66 -23 6 C-19.72894934 3.81929956 -16.95813067 2.9592069 -13.1875 1.875 C-11.98480469 1.52179688 -10.78210938 1.16859375 -9.54296875 0.8046875 C-6.21570783 0.04899208 -3.3945471 -0.15595163 0 0 Z " fill="#272727" transform="translate(306,134)"/>
<path d="M0 0 C0.33 0.66 0.66 1.32 1 2 C2.65 2 4.3 2 6 2 C6 1.34 6 0.68 6 0 C7.32 0 8.64 0 10 0 C9.49396008 2.16874252 9.00016187 3.99967627 8 6 C5.03 6 2.06 6 -1 6 C-1 2 -1 2 0 0 Z " fill="#2C2C2C" transform="translate(226,112)"/>
<path d="M0 0 C0.33 0 0.66 0 1 0 C1 3.3 1 6.6 1 10 C1.99 10 2.98 10 4 10 C4 11.32 4 12.64 4 14 C1.625 14.125 1.625 14.125 -1 14 C-3 12 -3 12 -3.1953125 9.3984375 C-3.17210937 8.40070313 -3.14890625 7.40296875 -3.125 6.375 C-3.10695313 5.37210937 -3.08890625 4.36921875 -3.0703125 3.3359375 C-3.04710937 2.56507812 -3.02390625 1.79421875 -3 1 C-2.67 1 -2.34 1 -2 1 C-1.67 2.65 -1.34 4.3 -1 6 C-0.67 4.02 -0.34 2.04 0 0 Z " fill="#161616" transform="translate(279,104)"/>
<path d="M0 0 C0 0.33 0 0.66 0 1 C-1.98 1.33 -3.96 1.66 -6 2 C-3.525 2.99 -3.525 2.99 -1 4 C-1 4.99 -1 5.98 -1 7 C-2.98 7 -4.96 7 -7 7 C-7.33 6.34 -7.66 5.68 -8 5 C-8.66 5 -9.32 5 -10 5 C-10 7.64 -10 10.28 -10 13 C-10.33 13 -10.66 13 -11 13 C-11.45235602 5.1591623 -11.45235602 5.1591623 -10 1.4375 C-6.78316135 -0.87460278 -3.88892873 -0.25501172 0 0 Z " fill="#2B2B2B" transform="translate(250,101)"/>
<path d="M0 0 C0 0.66 0 1.32 0 2 C0.66 2.33 1.32 2.66 2 3 C1.01 3.33 0.02 3.66 -1 4 C-1 3.34 -1 2.68 -1 2 C-3.31 2 -5.62 2 -8 2 C-8 8.93 -8 15.86 -8 23 C-8.33 23 -8.66 23 -9 23 C-9.04898437 21.83082031 -9.09796875 20.66164063 -9.1484375 19.45703125 C-9.22350171 17.90883196 -9.29904795 16.36065599 -9.375 14.8125 C-9.42140625 13.65911133 -9.42140625 13.65911133 -9.46875 12.48242188 C-9.68616111 8.26102289 -10.09743072 4.85927672 -12 1 C-7.915021 0.45533613 -4.1274515 0 0 0 Z " fill="#C7C7C7" transform="translate(318,60)"/>
<path d="M0 0 C1.65 0 3.3 0 5 0 C4.88590407 1.45922693 4.75834456 2.91740598 4.625 4.375 C4.55539063 5.18710938 4.48578125 5.99921875 4.4140625 6.8359375 C4 9 4 9 2 11 C0.57741188 7.17679443 -0.24042276 4.08718695 0 0 Z " fill="#BB9F49" transform="translate(204,129)"/>
<path d="M0 0 C3.0625 0.1875 3.0625 0.1875 5.0625 2.1875 C5.1875 5.3125 5.1875 5.3125 5.0625 8.1875 C3.7425 8.1875 2.4225 8.1875 1.0625 8.1875 C0.98 7.40375 0.8975 6.62 0.8125 5.8125 C0.33443661 3.04000896 0.33443661 3.04000896 -2 1.875 C-2.639375 1.648125 -3.27875 1.42125 -3.9375 1.1875 C-2.9375 0.1875 -2.9375 0.1875 0 0 Z " fill="#0F0F0F" transform="translate(306.9375,101.8125)"/>
<path d="M0 0 C0.33 0 0.66 0 1 0 C1 2.31 1 4.62 1 7 C-2.4019487 9.09350689 -5.05272412 9.17942163 -9 9 C-9.33 8.01 -9.66 7.02 -10 6 C-6.7 6 -3.4 6 0 6 C0 4.02 0 2.04 0 0 Z " fill="#DDDDDD" transform="translate(312,105)"/>
<path d="M0 0 C1.65 0 3.3 0 5 0 C5 1.98 5 3.96 5 6 C3.35 6 1.7 6 0 6 C0 4.02 0 2.04 0 0 Z " fill="#BB9C44" transform="translate(204,32)"/>
<path d="M0 0 C-0.804375 0.28875 -1.60875 0.5775 -2.4375 0.875 C-5.1326468 1.73262568 -5.1326468 1.73262568 -6 4 C-8.31 4 -10.62 4 -13 4 C-13.33 3.34 -13.66 2.68 -14 2 C-12.42085985 1.46658816 -10.83645613 0.94874237 -9.25 0.4375 C-8.36828125 0.14746094 -7.4865625 -0.14257812 -6.578125 -0.44140625 C-3.92165684 -1.01697435 -2.52968894 -0.89248371 0 0 Z " fill="#3D3C3E" transform="translate(104,20)"/>
<path d="M0 0 C3.3 0 6.6 0 10 0 C9.67 0.99 9.34 1.98 9 3 C6.03 3 3.06 3 0 3 C0 2.01 0 1.02 0 0 Z " fill="#EBEBEB" transform="translate(244,111)"/>
<path d="M0 0 C1.2065625 0.0309375 1.2065625 0.0309375 2.4375 0.0625 C2.4375 0.7225 2.4375 1.3825 2.4375 2.0625 C3.0975 2.3925 3.7575 2.7225 4.4375 3.0625 C2.1275 3.0625 -0.1825 3.0625 -2.5625 3.0625 C-2.5625 5.7025 -2.5625 8.3425 -2.5625 11.0625 C-2.8925 11.0625 -3.2225 11.0625 -3.5625 11.0625 C-3.58938151 9.41675434 -3.60884123 7.77088587 -3.625 6.125 C-3.63660156 5.20847656 -3.64820313 4.29195312 -3.66015625 3.34765625 C-3.52086326 0.08820018 -3.27895972 0.07997463 0 0 Z " fill="#DBD8C5" transform="translate(205.5625,27.9375)"/>
<path d="M0 0 C1.98 0.495 1.98 0.495 4 1 C3.34 1 2.68 1 2 1 C2 2.65 2 4.3 2 6 C1.34 6 0.68 6 0 6 C0 9.3 0 12.6 0 16 C-0.33 16 -0.66 16 -1 16 C-1.02712153 14.083412 -1.04645097 12.1667127 -1.0625 10.25 C-1.07410156 9.18265625 -1.08570312 8.1153125 -1.09765625 7.015625 C-1.01510087 4.46631499 -0.74617558 2.42066409 0 0 Z " fill="#E9E3BC" transform="translate(100,26)"/>
<path d="M0 0 C6.75 -0.125 6.75 -0.125 9 1 C9 1.66 9 2.32 9 3 C5.37 3.33 1.74 3.66 -2 4 C-1.01 3.34 -0.02 2.68 1 2 C0.67 1.34 0.34 0.68 0 0 Z " fill="#595959" transform="translate(153,21)"/>
<path d="M0 0 C2.475 0.99 2.475 0.99 5 2 C5 3.32 5 4.64 5 6 C3.68 6 2.36 6 1 6 C-0.0625 4.125 -0.0625 4.125 -1 2 C-0.67 1.34 -0.34 0.68 0 0 Z " fill="#1E1E1E" transform="translate(231,101)"/>
<path d="M0 0 C-2.75342006 2.75342006 -5.22412319 3.21878411 -9 4 C-11.4375 3.125 -11.4375 3.125 -13 2 C-8.46298506 0.54815522 -4.81938524 -0.23509196 0 0 Z " fill="#313131" transform="translate(306,134)"/>
<path d="M0 0 C2.55803184 3.83704776 4.34505724 7.75712791 3.625 12.4375 C3.41875 12.953125 3.2125 13.46875 3 14 C3 13.01 3 12.02 3 11 C2.34 11 1.68 11 1 11 C-0.28317892 7.15046324 -0.06643637 4.05261865 0 0 Z " fill="#E6E0D0" transform="translate(201,129)"/>
<path d="M0 0 C2.375 0.3125 2.375 0.3125 5 1 C5.66 1.99 6.32 2.98 7 4 C6.67 4.66 6.34 5.32 6 6 C3.69 6 1.38 6 -1 6 C0.32 5.67 1.64 5.34 3 5 C3 3.68 3 2.36 3 1 C2.01 0.67 1.02 0.34 0 0 Z " fill="#C5C5C5" transform="translate(292,100)"/>
<path d="M0 0 C-0.66 1.32 -1.32 2.64 -2 4 C-3.98 4 -5.96 4 -8 4 C-8.33 3.34 -8.66 2.68 -9 2 C-5.86501708 0.14223235 -3.62528568 -0.20140476 0 0 Z " fill="#050304" transform="translate(114,18)"/>
<path d="M0 0 C-0.66 1.32 -1.32 2.64 -2 4 C-2.99 4 -3.98 4 -5 4 C-5 3.34 -5 2.68 -5 2 C-5.99 1.34 -6.98 0.68 -8 0 C-4.71303767 -0.79953138 -3.28976808 -1.09658936 0 0 Z " fill="#3C3C3C" transform="translate(253,114)"/>
<path d="M0 0 C-0.66 1.32 -1.32 2.64 -2 4 C-2.99 4 -3.98 4 -5 4 C-5 3.34 -5 2.68 -5 2 C-5.99 1.34 -6.98 0.68 -8 0 C-4.71303767 -0.79953138 -3.28976808 -1.09658936 0 0 Z " fill="#484848" transform="translate(312,114)"/>
<path d="M0 0 C1.8871875 0.061875 1.8871875 0.061875 3.8125 0.125 C2.8125 1.6875 2.8125 1.6875 0.8125 3.125 C-1.95364782 3.09226452 -4.44780547 2.61904328 -7.1875 2.125 C-4.09861478 0.06574319 -3.47814073 -0.1140374 0 0 Z " fill="#1D1009" transform="translate(112.1875,23.875)"/>
<path d="M0 0 C0.33 0 0.66 0 1 0 C1 2.31 1 4.62 1 7 C0.01 7.33 -0.98 7.66 -2 8 C-2 7.01 -2 6.02 -2 5 C-3.32 4.67 -4.64 4.34 -6 4 C-4.35 4 -2.7 4 -1 4 C-0.67 2.68 -0.34 1.36 0 0 Z " fill="#CFCFCF" transform="translate(238,107)"/>
<path d="M0 0 C1.32 0.33 2.64 0.66 4 1 C4 1.99 4 2.98 4 4 C2.02 4 0.04 4 -2 4 C-1.34 2.68 -0.68 1.36 0 0 Z " fill="#CBCBCB" transform="translate(245,104)"/>
<path d="M0 0 C0.33 0.99 0.66 1.98 1 3 C-0.98 3 -2.96 3 -5 3 C-5 5.64 -5 8.28 -5 11 C-5.33 11 -5.66 11 -6 11 C-6 8.03 -6 5.06 -6 2 C-2 0 -2 0 0 0 Z " fill="#AC9F73" transform="translate(99,40)"/>
<path d="M0 0 C1.65 0 3.3 0 5 0 C5.33 0.99 5.66 1.98 6 3 C3.69 3 1.38 3 -1 3 C-0.67 2.01 -0.34 1.02 0 0 Z " fill="#E4E4E4" transform="translate(243,66)"/>
<path d="M0 0 C0.99 0.33 1.98 0.66 3 1 C2.67 2.65 2.34 4.3 2 6 C1.34 6 0.68 6 0 6 C-0.38218767 4.34385343 -0.71395102 2.67542976 -1 1 C-0.67 0.67 -0.34 0.34 0 0 Z " fill="#C2A037" transform="translate(206,130)"/>
<path d="M0 0 C1.98 0 3.96 0 6 0 C6 0.99 6 1.98 6 3 C4.02 3 2.04 3 0 3 C0 2.01 0 1.02 0 0 Z " fill="#D3D3D3" transform="translate(302,105)"/>
<path d="M0 0 C2.125 0.375 2.125 0.375 4 1 C3.67 1.66 3.34 2.32 3 3 C2.01 3.33 1.02 3.66 0 4 C-1.20882096 6.00016466 -1.20882096 6.00016466 -2 8 C-2.125 5.125 -2.125 5.125 -2 2 C-1.34 1.34 -0.68 0.68 0 0 Z " fill="#B9B9B9" transform="translate(228,104)"/>
<path d="M0 0 C0 0.33 0 0.66 0 1 C-1.65 1.33 -3.3 1.66 -5 2 C-4.01 2.66 -3.02 3.32 -2 4 C-3.65 4 -5.3 4 -7 4 C-7 3.34 -7 2.68 -7 2 C-7.66 1.67 -8.32 1.34 -9 1 C-6.04335481 -0.4783226 -3.25770263 -0.06032783 0 0 Z " fill="#383838" transform="translate(309,101)"/>
</svg>
